<svg width="300px" height="300px" viewBox="0 0 326 503" version="1.1" xmlns="http://www.w3.org/2000/svg" xmlns:xlink="http://www.w3.org/1999/xlink">
    <g id="Page-1" stroke="none" stroke-width="1" fill="none" fill-rule="evenodd">
        <g id="Time-Off" transform="translate(-742.000000, 0.000000)">
            <path d="M905,280 L905,501.727415 C904.833518,502.017662 904.666852,502.308216 904.5,502.599076 C855.834446,417.709418 822.926701,359.051002 805.776767,326.623831 C765.203907,249.908487 742,199.115243 742,162.5 C742,72.7537282 814.753728,0 904.5,0 C904.666725,0 904.833392,0.000251088112 905,0 L905,50 C841.487254,50 790,101.487254 790,165 C790,228.512746 841.487254,280 905,280 Z" id="Combined-Shape" fill="#07008D"></path>
            <path d="M905,50.0042574 L905,0 C905.166608,0.000251088112 905.333275,0 905.5,0 C995.246272,0 1068,72.7537282 1068,162.5 C1068,198.54186 1043.34975,251.727944 1004.03766,326.623831 C986.739345,359.579905 953.89346,418.23832 905.5,502.599076 C905.333148,502.308028 905.166481,502.017289 905,501.726858 L905,279.995743 C905.332998,279.998579 905.666333,280 906,280 C969.512746,280 1021,228.512746 1021,165 C1021,101.487254 969.512746,50 906,50 C905.666333,50 905.332998,50.001421 905,50.0042574 Z" id="Combined-Shape" fill="#0800A8"></path>
        </g>
    </g>
</svg>