<?xml version="1.0" standalone="no"?>
<!DOCTYPE svg PUBLIC "-//W3C//DTD SVG 20010904//EN"
 "http://www.w3.org/TR/2001/REC-SVG-20010904/DTD/svg10.dtd">
<svg version="1.0" xmlns="http://www.w3.org/2000/svg"
 width="700.000000pt" height="700.000000pt" viewBox="0 0 700.000000 700.000000"
 preserveAspectRatio="xMidYMid meet">
<metadata>
Created by potrace 1.11, written by Peter Selinger 2001-2013
</metadata>
<g transform="translate(0.000000,700.000000) scale(0.100000,-0.100000)"
fill="#000000" stroke="none">
<path d="M3328 6996 c-1 -2 -37 -6 -78 -10 -41 -3 -86 -8 -100 -11 -14 -3 -52
-10 -85 -16 -185 -32 -403 -108 -590 -203 -113 -58 -301 -171 -325 -196 -3 -3
-39 -32 -80 -65 -241 -191 -473 -484 -611 -769 -46 -96 -124 -294 -134 -340
-2 -12 -13 -55 -24 -96 -20 -75 -22 -85 -36 -170 -4 -25 -9 -54 -11 -65 -19
-97 -25 -390 -10 -500 26 -202 136 -567 242 -803 13 -29 24 -55 24 -57 0 -6
37 -88 138 -305 125 -268 362 -735 565 -1110 91 -169 240 -436 249 -447 6 -7
7 -13 3 -13 -5 0 -2 -8 6 -17 8 -10 19 -27 25 -38 25 -45 258 -462 274 -490
33 -58 233 -410 258 -455 14 -25 34 -58 44 -75 10 -16 21 -37 25 -45 4 -8 26
-48 50 -88 24 -40 43 -75 43 -77 0 -3 12 -24 26 -46 14 -23 37 -62 51 -87 111
-201 227 -392 239 -392 8 0 14 4 14 10 0 5 116 213 259 462 247 434 355 624
416 733 15 28 55 100 90 160 34 61 74 133 90 160 171 307 225 407 225 415 0 6
4 10 9 10 5 0 11 8 14 18 4 9 21 44 40 77 87 157 228 422 289 545 24 47 46 87
49 90 6 6 310 618 359 725 45 96 73 159 75 165 1 3 9 23 19 45 43 97 146 359
179 455 102 300 132 461 131 690 -3 745 -384 1441 -1020 1860 -114 75 -281
163 -397 209 -86 34 -289 98 -340 106 -17 3 -66 12 -107 20 -41 8 -95 17 -120
21 -46 6 -445 15 -452 10z m342 -701 c101 -11 115 -13 193 -30 92 -19 223 -63
323 -110 481 -221 827 -680 909 -1205 3 -25 9 -58 11 -73 8 -48 7 -258 0 -337
-17 -166 -80 -391 -151 -530 -58 -115 -75 -144 -138 -232 -201 -281 -476 -485
-798 -592 -58 -19 -122 -37 -143 -40 -21 -4 -41 -8 -45 -10 -3 -2 -28 -7 -56
-11 -310 -42 -566 -18 -825 77 -320 117 -601 340 -785 623 -139 214 -224 441
-253 680 -9 75 -9 332 0 403 64 489 355 927 782 1177 292 171 643 247 976 210z"/>
</g>
</svg>
